<svg width="491" height="612" viewBox="0 0 491 612" fill="none" xmlns="http://www.w3.org/2000/svg">
<path d="M245.198 7.0713L299.427 61.2996L122.599 238.127C118.694 242.033 118.694 248.364 122.599 252.27L299.427 429.097L245.198 483.326L7.07107 245.198L245.198 7.0713Z" fill="#2E4E61" stroke="#416981" stroke-width="10"/>
<path d="M159.751 226.888L331.136 225.528C340.007 225.458 344.4 214.73 338.128 208.458L258.155 128.484L312.383 74.2558L483.081 244.954L318.513 409.521L264.285 355.293L337.937 281.641C344.263 275.314 339.733 264.5 330.786 264.57L159.718 265.928L140.214 246.425L159.751 226.888Z" fill="#3A6043" stroke="#517663" stroke-width="10"/>
<path d="M11.46 527H67.89V539.32H26.2V559.23H63.6V571.44H26.2V591.68H69.21V604H11.46V527ZM106.146 605.343C101.097 605.343 96.5492 604.215 92.5029 601.959C88.4925 599.667 85.3057 596.355 82.9424 592.022C80.5791 587.654 79.3975 582.39 79.3975 576.231C79.3975 570.073 80.6865 564.827 83.2646 560.494C85.8428 556.126 89.2445 552.796 93.4697 550.504C97.695 548.176 102.26 547.013 107.166 547.013C110.711 547.013 113.808 547.621 116.458 548.839C119.108 550.021 121.435 551.524 123.44 553.351L117.425 561.085C114.453 558.543 111.248 557.271 107.811 557.271C103.227 557.271 99.4854 559.008 96.585 562.481C93.7204 565.955 92.2881 570.538 92.2881 576.231C92.2881 581.925 93.6846 586.508 96.4775 589.981C99.3063 593.455 102.959 595.191 107.435 595.191C109.726 595.191 111.857 594.78 113.826 593.956C115.796 593.097 117.568 591.969 119.144 590.572L124.246 598.521C121.668 600.885 118.803 602.621 115.652 603.731C112.501 604.806 109.332 605.343 106.146 605.343ZM158.03 605.343C153.411 605.343 149.096 604.215 145.086 601.959C141.111 599.667 137.889 596.355 135.418 592.022C132.947 587.654 131.712 582.39 131.712 576.231C131.712 570.073 132.947 564.827 135.418 560.494C137.889 556.126 141.111 552.796 145.086 550.504C149.096 548.176 153.411 547.013 158.03 547.013C162.649 547.013 166.964 548.176 170.975 550.504C174.985 552.796 178.226 556.126 180.696 560.494C183.167 564.827 184.402 570.073 184.402 576.231C184.402 582.39 183.167 587.654 180.696 592.022C178.226 596.355 174.985 599.667 170.975 601.959C166.964 604.215 162.649 605.343 158.03 605.343ZM158.03 595.191C162.22 595.191 165.514 593.455 167.913 589.981C170.348 586.508 171.565 581.925 171.565 576.231C171.565 570.538 170.348 565.955 167.913 562.481C165.514 559.008 162.22 557.271 158.03 557.271C153.841 557.271 150.547 559.008 148.147 562.481C145.784 565.955 144.603 570.538 144.603 576.231C144.603 581.925 145.784 586.508 148.147 589.981C150.547 593.455 153.841 595.191 158.03 595.191Z" fill="#3A6043"/>
<path d="M241.046 536.9C240.973 537.78 240.79 538.843 240.496 540.09C240.276 541.263 239.983 542.4 239.616 543.5C239.25 544.527 238.883 545.407 238.516 546.14C238.15 546.873 237.856 547.167 237.636 547.02C237.563 547.02 237.526 546.837 237.526 546.47C237.526 546.103 237.526 545.7 237.526 545.26C237.526 544.747 237.563 544.27 237.636 543.83C237.71 543.39 237.746 543.06 237.746 542.84C237.966 541.667 238.113 540.567 238.186 539.54C238.26 538.513 238.37 537.45 238.516 536.35C238.663 534.957 238.736 533.637 238.736 532.39C238.81 531.143 238.736 529.86 238.516 528.54C238.516 528.393 238.48 528.21 238.406 527.99C238.333 527.77 238.37 527.66 238.516 527.66C238.736 527.66 238.993 527.843 239.286 528.21C239.58 528.503 239.763 528.723 239.836 528.87C240.276 529.75 240.606 530.777 240.826 531.95C241.12 533.123 241.193 534.773 241.046 536.9ZM242.476 529.2C243.723 532.133 244.456 535.067 244.676 538C244.97 540.86 244.896 543.757 244.456 546.69C244.09 549.55 243.393 552.41 242.366 555.27C241.413 558.13 240.313 560.917 239.066 563.63C237.38 567.297 235.583 570.89 233.676 574.41C231.843 577.93 230.046 581.377 228.286 584.75C226.526 588.123 224.876 591.423 223.336 594.65C221.87 597.803 220.696 600.92 219.816 604C219.67 604.367 219.486 604.513 219.266 604.44C219.12 604.367 219.046 604.22 219.046 604C218.9 600.48 219.413 596.96 220.586 593.44C221.76 589.847 223.226 586.253 224.986 582.66C226.82 579.067 228.763 575.473 230.816 571.88C232.943 568.213 234.85 564.51 236.536 560.77C237.636 558.423 238.626 555.967 239.506 553.4C240.386 550.833 241.083 548.193 241.596 545.48C242.183 542.767 242.513 540.09 242.586 537.45C242.733 534.737 242.55 532.097 242.036 529.53C241.89 528.87 241.89 528.577 242.036 528.65C242.11 528.65 242.256 528.833 242.476 529.2ZM206.726 572.21C206.726 572.43 206.69 572.907 206.616 573.64C206.616 574.3 206.506 574.63 206.286 574.63C206.14 574.703 205.956 574.447 205.736 573.86C205.516 573.2 205.333 572.687 205.186 572.32C204.893 571.367 204.563 570.23 204.196 568.91C203.83 567.517 203.463 566.123 203.096 564.73C202.803 563.263 202.51 561.833 202.216 560.44C201.996 559.047 201.85 557.837 201.776 556.81C201.703 556.297 201.556 555.307 201.336 553.84C201.116 552.3 200.823 550.503 200.456 548.45C200.09 546.397 199.65 544.197 199.136 541.85C198.696 539.503 198.183 537.267 197.596 535.14C197.083 532.94 196.533 530.997 195.946 529.31C195.36 527.55 194.773 526.267 194.186 525.46C193.82 524.947 193.71 524.617 193.856 524.47C194.003 524.323 194.186 524.36 194.406 524.58C194.626 524.727 194.81 524.873 194.956 525.02C196.13 525.9 197.23 527.147 198.256 528.76C199.356 530.373 200.346 532.097 201.226 533.93C202.106 535.763 202.84 537.67 203.426 539.65C204.013 541.557 204.416 543.28 204.636 544.82C205.296 549.147 205.773 553.73 206.066 558.57C206.36 563.41 206.58 567.957 206.726 572.21ZM213.656 587.72C212.19 582.807 211.016 577.747 210.136 572.54C209.256 567.333 208.486 562.09 207.826 556.81C207.313 552.923 206.726 549.037 206.066 545.15C205.406 541.263 204.38 537.23 202.986 533.05C202.84 532.683 202.766 532.5 202.766 532.5C202.766 532.427 202.84 532.353 202.986 532.28C203.133 532.28 203.39 532.463 203.756 532.83C205.296 534.37 206.58 536.753 207.606 539.98C208.706 543.207 209.623 546.653 210.356 550.32C211.163 553.913 211.823 557.433 212.336 560.88C212.85 564.253 213.29 566.967 213.656 569.02C214.023 570.707 214.316 572.43 214.536 574.19C214.83 575.95 215.05 577.71 215.196 579.47C215.71 577.49 216.406 575.473 217.286 573.42C218.166 571.293 219.046 569.24 219.926 567.26C220.88 565.28 221.796 563.447 222.676 561.76C223.63 560 224.4 558.497 224.986 557.25C226.526 553.95 228.286 550.65 230.266 547.35C232.246 543.977 234.08 541.153 235.766 538.88C236.426 538 236.793 537.56 236.866 537.56C237.013 537.707 237.013 537.963 236.866 538.33C236.793 538.623 236.683 538.953 236.536 539.32C235.07 544.6 233.053 549.733 230.486 554.72C227.993 559.707 225.463 564.73 222.896 569.79C221.43 572.577 219.963 575.4 218.496 578.26C217.03 581.12 215.93 584.31 215.196 587.83C215.05 588.637 214.83 589.15 214.536 589.37C214.316 589.517 214.023 588.967 213.656 587.72ZM217.066 604C217.286 604.147 217.323 604.22 217.176 604.22C217.103 604.293 216.956 604.257 216.736 604.11C213.876 602.79 211.42 600.993 209.366 598.72C207.313 596.373 205.553 593.77 204.086 590.91C202.693 588.05 201.556 585.007 200.676 581.78C199.796 578.553 199.063 575.363 198.476 572.21C197.67 567.81 197.046 563.41 196.606 559.01C196.166 554.61 195.653 550.32 195.066 546.14C194.553 541.887 193.93 537.853 193.196 534.04C192.463 530.153 191.436 526.597 190.116 523.37C190.043 523.223 189.97 523.113 189.896 523.04C189.896 522.893 189.97 522.747 190.116 522.6C190.19 522.527 190.3 522.6 190.446 522.82C190.593 523.04 190.703 523.223 190.776 523.37C193.05 526.45 194.736 529.97 195.836 533.93C197.01 537.817 197.89 541.96 198.476 546.36C199.063 550.687 199.54 555.16 199.906 559.78C200.346 564.327 200.97 568.763 201.776 573.09C202.29 575.877 202.986 578.737 203.866 581.67C204.746 584.53 205.81 587.353 207.056 590.14C208.303 592.853 209.733 595.42 211.346 597.84C213.033 600.187 214.94 602.24 217.066 604ZM216.516 601.25C216.076 600.81 215.49 600.223 214.756 599.49C214.096 598.757 213.473 597.987 212.886 597.18C212.446 596.447 211.97 595.493 211.456 594.32C210.943 593.073 210.466 591.863 210.026 590.69C209.66 589.517 209.366 588.49 209.146 587.61C209 586.657 209.036 586.143 209.256 586.07C209.33 586.07 209.476 586.253 209.696 586.62C209.99 586.913 210.246 587.28 210.466 587.72C210.686 588.16 210.906 588.6 211.126 589.04C211.346 589.407 211.53 589.663 211.676 589.81C212.263 590.837 212.776 591.79 213.216 592.67C213.656 593.477 214.06 594.357 214.426 595.31C214.866 596.263 215.306 597.107 215.746 597.84C216.26 598.5 216.553 598.793 216.626 598.72C216.7 598.72 216.7 598.537 216.626 598.17C216.626 597.73 216.59 597.253 216.516 596.74C216.516 596.227 216.48 595.75 216.406 595.31C216.406 594.797 216.406 594.43 216.406 594.21C216.26 591.423 216.48 588.93 217.066 586.73C217.726 584.53 218.46 582.513 219.266 580.68C220.953 576.94 222.933 573.2 225.206 569.46C227.48 565.72 229.79 562.2 232.136 558.9C232.283 558.753 232.576 558.423 233.016 557.91C233.456 557.397 233.75 557.177 233.896 557.25C234.116 557.323 234.116 557.69 233.896 558.35C233.75 558.937 233.64 559.34 233.566 559.56C233.273 560.44 232.87 561.467 232.356 562.64C231.916 563.813 231.44 565.06 230.926 566.38C230.413 567.627 229.863 568.837 229.276 570.01C228.763 571.183 228.286 572.173 227.846 572.98C227.626 573.42 227.223 574.263 226.636 575.51C226.05 576.757 225.39 578.297 224.656 580.13C223.923 581.89 223.153 583.797 222.346 585.85C221.54 587.903 220.77 589.92 220.036 591.9C219.376 593.807 218.826 595.567 218.386 597.18C217.946 598.793 217.726 600.077 217.726 601.03C217.726 601.543 217.616 601.8 217.396 601.8C217.176 601.8 216.883 601.617 216.516 601.25Z" fill="#2E4E61"/>
<path d="M252.508 604V548.409H265.076V604H252.508ZM258.899 538.473C256.644 538.473 254.817 537.81 253.421 536.485C252.024 535.125 251.326 533.334 251.326 531.114C251.326 529.002 252.024 527.283 253.421 525.958C254.817 524.633 256.644 523.971 258.899 523.971C261.155 523.971 262.981 524.633 264.378 525.958C265.774 527.283 266.473 529.002 266.473 531.114C266.473 533.334 265.774 535.125 264.378 536.485C262.981 537.81 261.155 538.473 258.899 538.473ZM297.356 605.343C293.453 605.343 289.64 604.645 285.916 603.248C282.228 601.852 279.059 599.864 276.409 597.286L281.941 590.143C286.668 593.974 291.932 595.89 297.732 595.89C300.812 595.89 303.104 595.227 304.607 593.902C306.147 592.577 306.917 590.912 306.917 588.907C306.917 586.544 305.717 584.736 303.318 583.482C300.955 582.193 298.216 580.994 295.101 579.884C292.415 578.881 289.873 577.682 287.474 576.285C285.11 574.889 283.195 573.152 281.727 571.075C280.258 568.998 279.524 566.474 279.524 563.502C279.524 558.775 281.297 554.854 284.842 551.739C288.387 548.588 293.274 547.013 299.505 547.013C303.265 547.013 306.684 547.657 309.764 548.946C312.879 550.2 315.564 551.775 317.82 553.673L312.396 560.816C308.421 557.952 304.231 556.52 299.827 556.52C296.891 556.52 294.743 557.164 293.382 558.453C292.021 559.706 291.341 561.192 291.341 562.911C291.341 565.06 292.326 566.689 294.295 567.799C296.264 568.909 298.968 570.073 302.405 571.29C305.27 572.293 307.938 573.492 310.408 574.889C312.915 576.249 314.938 578.004 316.478 580.152C318.017 582.301 318.787 585.004 318.787 588.263C318.787 592.989 316.943 597.018 313.255 600.348C309.603 603.678 304.303 605.343 297.356 605.343ZM330.711 604V548.409H343.279V604H330.711ZM337.103 538.473C334.847 538.473 333.021 537.81 331.624 536.485C330.228 535.125 329.529 533.334 329.529 531.114C329.529 529.002 330.228 527.283 331.624 525.958C333.021 524.633 334.847 523.971 337.103 523.971C339.358 523.971 341.185 524.633 342.581 525.958C343.978 527.283 344.676 529.002 344.676 531.114C344.676 533.334 343.978 535.125 342.581 536.485C341.185 537.81 339.358 538.473 337.103 538.473ZM382.757 605.343C378.138 605.343 373.823 604.215 369.812 601.959C365.838 599.667 362.615 596.355 360.145 592.022C357.674 587.654 356.438 582.39 356.438 576.231C356.438 570.073 357.674 564.827 360.145 560.494C362.615 556.126 365.838 552.796 369.812 550.504C373.823 548.176 378.138 547.013 382.757 547.013C387.376 547.013 391.691 548.176 395.701 550.504C399.712 552.796 402.952 556.126 405.423 560.494C407.894 564.827 409.129 570.073 409.129 576.231C409.129 582.39 407.894 587.654 405.423 592.022C402.952 596.355 399.712 599.667 395.701 601.959C391.691 604.215 387.376 605.343 382.757 605.343ZM382.757 595.191C386.946 595.191 390.241 593.455 392.64 589.981C395.075 586.508 396.292 581.925 396.292 576.231C396.292 570.538 395.075 565.955 392.64 562.481C390.241 559.008 386.946 557.271 382.757 557.271C378.567 557.271 375.273 559.008 372.874 562.481C370.511 565.955 369.329 570.538 369.329 576.231C369.329 581.925 370.511 586.508 372.874 589.981C375.273 593.455 378.567 595.191 382.757 595.191ZM422.342 604V548.409H432.654L433.675 555.929H433.943C436.486 553.494 439.225 551.399 442.161 549.645C445.133 547.89 448.517 547.013 452.312 547.013C458.221 547.013 462.535 548.946 465.257 552.813C467.978 556.645 469.339 562.07 469.339 569.088V604H456.878V570.646C456.878 566.026 456.162 562.732 454.729 560.763C453.333 558.757 451.059 557.755 447.908 557.755C445.438 557.755 443.235 558.382 441.302 559.635C439.404 560.888 437.273 562.678 434.91 565.006V604H422.342Z" fill="black"/>
</svg>
